<svg preserveAspectRatio="none" width="100%" height="100%" overflow="visible" style="display: block;" viewBox="0 0 24 24" fill="none" xmlns="http://www.w3.org/2000/svg">
<g id="angle-down">
<rect width="24" height="24" rx="12" fill="var(--fill-0, #E67545)"/>
<path id="Vector" d="M7.05 9.29061C7.23736 9.10435 7.49082 8.99981 7.755 8.99981C8.01919 8.99981 8.27264 9.10435 8.46 9.29061L12.05 12.8306L15.59 9.29061C15.7774 9.10435 16.0308 8.99981 16.295 8.99981C16.5592 8.99981 16.8126 9.10435 17 9.29061C17.0937 9.38357 17.1681 9.49417 17.2189 9.61603C17.2697 9.73789 17.2958 9.86859 17.2958 10.0006C17.2958 10.1326 17.2697 10.2633 17.2189 10.3852C17.1681 10.507 17.0937 10.6176 17 10.7106L12.76 14.9506C12.667 15.0443 12.5564 15.1187 12.4346 15.1695C12.3127 15.2203 12.182 15.2464 12.05 15.2464C11.918 15.2464 11.7873 15.2203 11.6654 15.1695C11.5436 15.1187 11.433 15.0443 11.34 14.9506L7.05 10.7106C6.95627 10.6176 6.88188 10.507 6.83111 10.3852C6.78034 10.2633 6.7542 10.1326 6.7542 10.0006C6.7542 9.86859 6.78034 9.73789 6.83111 9.61603C6.88188 9.49417 6.95627 9.38357 7.05 9.29061Z" fill="var(--fill-0, #F5F5F5)"/>
</g>
</svg>
