<svg width="56" height="49" viewBox="0 0 56 49" fill="none" xmlns="http://www.w3.org/2000/svg">
<g clip-path="url(#clip0_1289_1939)">
<path d="M27.9264 43.7529C27.1547 43.4885 26.3715 43.2529 25.5768 43.0287V1.94828C25.5768 0.873563 24.7014 0 23.6245 0H23.4344C22.3575 0 21.4822 0.873563 21.4822 1.94828V42.0862C19.8639 41.7989 18.2168 41.6092 16.541 41.5172V1.94828C16.541 0.873563 15.6599 0 14.5887 0H14.3987C13.3217 0 12.4464 0.873563 12.4464 1.94828V41.4943C10.7705 41.569 9.12346 41.7471 7.50519 42.0172V1.94828C7.50519 0.873563 6.62407 0 5.55291 0H5.36286C4.28594 0 3.41058 0.873563 3.41058 1.94828V42.9195C2.48339 43.1724 1.56772 43.4425 0.663561 43.7529C0.151015 43.9253 -0.119656 44.477 0.0588714 44.9885C0.197086 45.3908 0.577177 45.6494 0.980303 45.6494C1.08396 45.6494 1.19338 45.6322 1.29705 45.5977C1.99388 45.3563 2.70223 45.1437 3.41058 44.9425V47.0517C3.41058 48.1264 4.28594 49 5.36286 49H5.55291C6.62983 49 7.50519 48.1264 7.50519 47.0517V43.9943C9.12346 43.7126 10.7705 43.523 12.4464 43.4483V47.0517C12.4464 48.1264 13.3275 49 14.3987 49H14.5887C15.6656 49 16.541 48.1264 16.541 47.0517V43.4713C18.2168 43.569 19.8696 43.7701 21.4822 44.069V47.0517C21.4822 48.1264 22.3633 49 23.4344 49H23.6245C24.7014 49 25.5768 48.1264 25.5768 47.0517V45.0517C26.1527 45.2241 26.7286 45.4023 27.2929 45.5977C27.7997 45.7701 28.3583 45.5 28.5311 44.9885C28.7039 44.4828 28.4332 43.931 27.9264 43.7529ZM55.3448 25.8851C54.5097 25.5977 53.6574 25.3448 52.7993 25.1034V1.94828C52.7993 0.873563 51.9182 0 50.847 0H50.657C49.5801 0 48.7047 0.873563 48.7047 1.94828V24.1782C46.4357 23.7874 44.0975 23.5805 41.7133 23.5805C39.3291 23.5805 36.9968 23.7874 34.722 24.1782V1.94828C34.722 0.873563 33.8409 0 32.7697 0H32.5796C31.5027 0 30.6216 0.873563 30.6216 1.94828V25.1034C29.7635 25.3391 28.9112 25.592 28.0762 25.8793C27.5694 26.0575 27.2987 26.6092 27.4715 27.1149C27.65 27.6207 28.2028 27.8908 28.7096 27.7184C29.3431 27.5 29.9824 27.3046 30.6216 27.1207V47.0517C30.6216 48.1264 31.5027 49 32.5796 49H32.7697C33.8466 49 34.722 48.1264 34.722 47.0517V26.1609C36.991 25.7529 39.3234 25.5287 41.7133 25.5287C44.1033 25.5287 46.4357 25.7529 48.7047 26.1609V47.0517C48.7047 48.1264 49.5858 49 50.657 49H50.847C51.924 49 52.7993 48.1264 52.7993 47.0517V27.1207C53.4443 27.3046 54.0836 27.5057 54.7113 27.7184C54.8149 27.7529 54.9244 27.7701 55.028 27.7701C55.4312 27.7701 55.8112 27.5172 55.9437 27.1149C56.1165 26.6092 55.8458 26.0575 55.339 25.8851H55.3448Z" fill="#D0121B"/>
</g>
<defs>
<clipPath id="clip0_1289_1939">
<rect width="56" height="49" fill="white"/>
</clipPath>
</defs>
</svg>
