<svg width="24" height="22" viewBox="0 0 24 22" fill="none" xmlns="http://www.w3.org/2000/svg">
<path d="M23.571 19.0511C23.0821 20.4104 21.1417 21.5378 19.594 21.8671C18.5351 22.089 17.152 22.2661 12.4961 20.3655C6.54061 17.9361 2.70541 11.9774 2.4065 11.5908C2.12025 11.2042 0 8.43554 0 5.57215C0 2.70875 1.47683 1.31447 2.07212 0.715849C2.56102 0.224483 3.3691 0 4.14424 0C4.39503 0 4.62048 0.0124714 4.82313 0.0224484C5.41842 0.0473908 5.71733 0.0823108 6.10997 1.00768C6.59887 2.1675 7.78946 5.03089 7.93131 5.32522C8.0757 5.61954 8.22009 6.01862 8.01744 6.40522C7.82745 6.8043 7.66026 6.98139 7.36135 7.32061C7.06244 7.65983 6.77873 7.91923 6.47981 8.28339C6.20623 8.60016 5.89719 8.93938 6.2417 9.52553C6.58621 10.0992 7.77679 12.0123 9.52973 13.5487C11.7918 15.5317 13.6258 16.1652 14.2819 16.4346C14.7708 16.6341 15.3535 16.5867 15.7106 16.2126C16.1641 15.7312 16.7239 14.9331 17.2939 14.1474C17.6992 13.5837 18.2109 13.5138 18.7479 13.7134C19.2951 13.9004 22.1905 15.3097 22.7857 15.6015C23.381 15.8958 23.7737 16.0355 23.9181 16.2824C24.0599 16.5294 24.0599 17.6892 23.571 19.0511Z" fill="#1A2136"/>
</svg>
