<svg preserveAspectRatio="none" width="100%" height="100%" overflow="visible" style="display: block;" viewBox="0 0 24 24" fill="none" xmlns="http://www.w3.org/2000/svg">
<g id="angle-down">
<rect width="24" height="24" rx="12" fill="var(--fill-0, #E67545)"/>
<path id="Vector" d="M7.05108 14.7092C7.23844 14.8955 7.49189 15 7.75608 15C8.02026 15 8.27371 14.8955 8.46108 14.7092L12.0511 11.1692L15.5911 14.7092C15.7784 14.8955 16.0319 15 16.2961 15C16.5603 15 16.8137 14.8955 17.0011 14.7092C17.0948 14.6162 17.1692 14.5056 17.22 14.3838C17.2707 14.2619 17.2969 14.1312 17.2969 13.9992C17.2969 13.8672 17.2707 13.7365 17.22 13.6146C17.1692 13.4928 17.0948 13.3822 17.0011 13.2892L12.7611 9.04921C12.6681 8.95548 12.5575 8.88109 12.4357 8.83032C12.3138 8.77955 12.1831 8.75341 12.0511 8.75341C11.9191 8.75341 11.7884 8.77955 11.6665 8.83032C11.5446 8.88109 11.434 8.95548 11.3411 9.04921L7.05108 13.2892C6.95735 13.3822 6.88295 13.4928 6.83219 13.6146C6.78142 13.7365 6.75528 13.8672 6.75528 13.9992C6.75528 14.1312 6.78142 14.2619 6.83219 14.3838C6.88295 14.5056 6.95735 14.6162 7.05108 14.7092Z" fill="var(--fill-0, #F5F5F5)"/>
</g>
</svg>
