<svg width="32" height="32" viewBox="0 0 32 32" fill="none" xmlns="http://www.w3.org/2000/svg">
<path d="M31.428 25.9787C30.7762 27.8324 28.189 29.3697 26.1253 29.8187C24.7135 30.1214 22.8693 30.3629 16.6614 27.7712C8.72081 24.4584 3.60721 16.3328 3.20866 15.8056C2.827 15.2784 0 11.503 0 7.59838C0 3.69375 1.96911 1.79246 2.76283 0.976158C3.4147 0.306113 4.49213 0 5.52566 0C5.86003 0 6.16064 0.0170064 6.43084 0.0306114C7.22456 0.0646239 7.62311 0.112242 8.14663 1.3741C8.7985 2.95568 10.3859 6.86031 10.5751 7.26166C10.7676 7.663 10.9601 8.2072 10.6899 8.7344C10.4366 9.2786 10.2137 9.52008 9.81514 9.98265C9.41659 10.4452 9.0383 10.799 8.63975 11.2955C8.27498 11.7275 7.86292 12.1901 8.32226 12.9894C8.78161 13.7716 10.3691 16.3804 12.7063 18.4756C15.7225 21.1795 18.1678 22.0435 19.0426 22.4108C19.6944 22.6829 20.4713 22.6183 20.9475 22.1081C21.5521 21.4517 22.2985 20.3633 23.0585 19.2919C23.5989 18.5232 24.2811 18.4279 24.9972 18.7C25.7267 18.9551 29.5873 20.8768 30.381 21.2748C31.1747 21.6761 31.6982 21.8666 31.8907 22.2033C32.0799 22.54 32.0799 24.1216 31.428 25.9787Z" fill="#E67545"/>
</svg>
