<svg preserveAspectRatio="none" width="100%" height="100%" overflow="visible" style="display: block;" viewBox="0 0 64 64" fill="none" xmlns="http://www.w3.org/2000/svg">
<g id="Social media icon container">
<rect width="64" height="64" rx="32" fill="var(--fill-0, white)"/>
<path id="Vector" d="M25.3735 16.112C23.6711 16.1923 22.5085 16.464 21.4921 16.8632C20.4404 17.2732 19.5488 17.8232 18.6617 18.7135C17.7748 19.6037 17.2284 20.4959 16.8214 21.5495C16.4276 22.5679 16.1606 23.7315 16.0854 25.4348C16.0102 27.1381 15.9936 27.6857 16.002 32.0308C16.0102 36.3756 16.0294 36.9202 16.112 38.6272C16.1933 40.3292 16.464 41.4914 16.8633 42.5081C17.274 43.5599 17.8233 44.4511 18.714 45.3385C19.6045 46.2258 20.496 46.7709 21.552 47.1785C22.5696 47.5718 23.7335 47.8399 25.4366 47.9145C27.1396 47.9891 27.6878 48.0065 32.0315 47.9981C36.3753 47.9898 36.9222 47.9705 38.6286 47.8895C40.3353 47.8086 41.4913 47.5359 42.5084 47.1385C43.5602 46.727 44.4521 46.1785 45.3388 45.2877C46.2255 44.3967 46.7715 43.5039 47.1781 42.4498C47.5724 41.4322 47.8403 40.2685 47.9141 38.5666C47.9888 36.8588 48.0064 36.3136 47.9981 31.9693C47.9897 27.6249 47.9701 27.0803 47.8892 25.374C47.8083 23.6677 47.5372 22.5091 47.1381 21.4917C46.7269 20.4399 46.1781 19.5493 45.288 18.6613C44.3977 17.7734 43.5041 17.2278 42.4505 16.822C41.4321 16.428 40.269 16.1596 38.566 16.086C36.8629 16.0124 36.3147 15.9934 31.9694 16.0019C27.624 16.0102 27.08 16.0288 25.3735 16.112ZM25.5604 45.0361C24.0004 44.9682 23.1533 44.709 22.5888 44.4921C21.8413 44.2041 21.3088 43.8559 20.7463 43.2987C20.1836 42.7417 19.8381 42.2073 19.5463 41.4614C19.3271 40.8969 19.0631 40.0508 18.9901 38.4908C18.9108 36.8048 18.8941 36.2985 18.8848 32.0268C18.8755 27.7552 18.8919 27.2495 18.9657 25.5628C19.0324 24.0041 19.2932 23.1561 19.5097 22.5919C19.7977 21.8435 20.1447 21.3119 20.7031 20.7497C21.2615 20.1875 21.7943 19.8412 22.5408 19.5493C23.1048 19.3292 23.9508 19.0675 25.5102 18.9932C27.1975 18.9132 27.7031 18.8972 31.9742 18.8879C36.2453 18.8785 36.7522 18.8945 38.4402 18.9689C39.9989 19.0367 40.8473 19.2949 41.4109 19.5129C42.1586 19.8009 42.6909 20.1468 43.253 20.7063C43.8153 21.2655 44.1618 21.7964 44.4537 22.5445C44.6741 23.1068 44.936 23.9525 45.0096 25.5129C45.0898 27.2003 45.1081 27.7063 45.1157 31.9769C45.1234 36.2476 45.1084 36.7548 45.0344 38.4409C44.9664 40.0009 44.7077 40.8482 44.4904 41.4134C44.2024 42.1606 43.8553 42.6934 43.2965 43.2553C42.7378 43.8173 42.2057 44.1634 41.4588 44.4553C40.8956 44.6751 40.0485 44.9375 38.4905 45.0118C36.803 45.0911 36.2974 45.1078 32.0247 45.1171C27.752 45.1265 27.2478 45.1091 25.5604 45.0361ZM38.6041 23.4485C38.6047 23.8283 38.718 24.1994 38.9295 24.5148C39.141 24.8302 39.4414 25.0758 39.7925 25.2205C40.1436 25.3652 40.5298 25.4025 40.9021 25.3277C41.2744 25.253 41.6162 25.0695 41.8843 24.8004C42.1523 24.5314 42.3346 24.1889 42.4079 23.8163C42.4813 23.4437 42.4425 23.0576 42.2965 22.7071C42.1505 22.3565 41.9037 22.0571 41.5875 21.8468C41.2713 21.6364 40.8999 21.5245 40.5201 21.5253C40.011 21.5264 39.5232 21.7296 39.1639 22.0902C38.8046 22.4509 38.6032 22.9395 38.6041 23.4485ZM23.7847 32.016C23.7936 36.5536 27.4788 40.2236 32.0154 40.215C36.5522 40.2064 40.2248 36.5216 40.2162 31.984C40.2076 27.4464 36.5215 23.7753 31.9842 23.7843C27.4468 23.7932 23.7761 27.4789 23.7847 32.016ZM26.6667 32.0102C26.6646 30.9554 26.9754 29.9237 27.5597 29.0455C28.144 28.1672 28.9756 27.482 29.9493 27.0764C30.923 26.6708 31.9952 26.5631 33.0302 26.7668C34.0651 26.9706 35.0164 27.4766 35.7638 28.221C36.5112 28.9654 37.021 29.9147 37.2288 30.9488C37.4367 31.983 37.3332 33.0555 36.9315 34.0309C36.5298 35.0062 35.8478 35.8405 34.972 36.4283C34.0961 37.0161 33.0656 37.3309 32.0107 37.333C31.3103 37.3345 30.6165 37.198 29.9688 36.9313C29.3212 36.6646 28.7324 36.2729 28.2361 35.7786C27.7399 35.2843 27.3459 34.6971 27.0766 34.0505C26.8073 33.404 26.668 32.7107 26.6667 32.0102Z" fill="var(--fill-0, #FF0069)"/>
</g>
</svg>
