<svg width="24" height="24" viewBox="0 0 24 24" fill="none" xmlns="http://www.w3.org/2000/svg">
<path d="M21.4059 19.7513L16.9958 15.3412C18.0575 13.9277 18.6307 12.2072 18.6288 10.4394C18.6288 5.92379 14.955 2.25 10.4394 2.25C5.92378 2.25 2.25 5.92379 2.25 10.4394C2.25 14.955 5.92378 18.6288 10.4394 18.6288C12.2072 18.6307 13.9277 18.0575 15.3412 16.9958L19.7513 21.4059C19.9746 21.6055 20.2657 21.712 20.5651 21.7036C20.8644 21.6952 21.1491 21.5726 21.3608 21.3609C21.5726 21.1491 21.6952 20.8644 21.7036 20.5651C21.712 20.2657 21.6054 19.9746 21.4059 19.7513ZM4.58982 10.4394C4.58982 9.28245 4.93289 8.1515 5.57565 7.18954C6.21841 6.22759 7.13198 5.47783 8.20085 5.03509C9.26972 4.59236 10.4459 4.47652 11.5806 4.70222C12.7153 4.92793 13.7576 5.48504 14.5756 6.30312C15.3937 7.1212 15.9508 8.16349 16.1765 9.29819C16.4022 10.4329 16.2864 11.609 15.8437 12.6779C15.4009 13.7468 14.6512 14.6604 13.6892 15.3031C12.7273 15.9459 11.5963 16.2889 10.4394 16.2889C8.88855 16.2871 7.40178 15.6702 6.30517 14.5736C5.20857 13.477 4.59168 11.9902 4.58982 10.4394Z" fill="#1A2136"/>
</svg>
