<svg width="40" height="40" viewBox="0 0 40 40" fill="none" xmlns="http://www.w3.org/2000/svg">
<rect width="40" height="40" rx="20" fill="#E67545"/>
<path d="M20.6271 13.4641C20.8317 13.5434 21.0186 13.6623 21.1771 13.8141L26.1771 18.8141C26.3333 18.969 26.4573 19.1533 26.542 19.3564C26.6266 19.5595 26.6701 19.7774 26.6701 19.9974C26.6701 20.2174 26.6266 20.4353 26.542 20.6384C26.4573 20.8415 26.3333 21.0258 26.1771 21.1807C26.0222 21.3369 25.8379 21.4609 25.6348 21.5455C25.4317 21.6302 25.2138 21.6737 24.9938 21.6737C24.7738 21.6737 24.5559 21.6302 24.3528 21.5455C24.1497 21.4609 23.9654 21.3369 23.8105 21.1807L21.6605 19.0141L21.6605 24.9974C21.6605 25.4394 21.4849 25.8633 21.1723 26.1759C20.8598 26.4885 20.4358 26.6641 19.9938 26.6641C19.5518 26.6641 19.1278 26.4885 18.8153 26.1759C18.5027 25.8633 18.3271 25.4394 18.3271 24.9974L18.3271 19.0141L16.1771 21.1807C15.8633 21.4946 15.4376 21.6709 14.9938 21.6709C14.55 21.6709 14.1243 21.4946 13.8105 21.1807C13.4966 20.8669 13.3203 20.4412 13.3203 19.9974C13.3203 19.5536 13.4966 19.1279 13.8105 18.8141L18.8105 13.8141C18.969 13.6623 19.1559 13.5434 19.3605 13.4641C19.7662 13.2974 20.2214 13.2974 20.6271 13.4641Z" fill="white"/>
</svg>
