<svg preserveAspectRatio="none" width="100%" height="100%" overflow="visible" style="display: block;" viewBox="0 0 64 64" fill="none" xmlns="http://www.w3.org/2000/svg">
<g id="Social media icon container">
<rect width="64" height="64" rx="32" fill="var(--fill-0, white)"/>
<path id="Vector" d="M28.1347 47.6454V36.9662H24.836V32.0589H28.1347V29.9445C28.1347 24.4778 30.5987 21.9445 35.9453 21.9445C36.48 21.9445 37.2187 22.0007 37.9027 22.0823C38.415 22.1352 38.9232 22.2224 39.424 22.3433V26.7929C39.1345 26.7658 38.8441 26.7497 38.5533 26.7447C38.2276 26.7362 37.9018 26.7322 37.576 26.7327C36.6333 26.7327 35.8973 26.8612 35.3427 27.1462C34.9698 27.334 34.6563 27.6222 34.4373 27.9786C34.0933 28.5406 33.9387 29.3101 33.9387 30.3232V32.0589H39.164L38.6493 34.8732L38.2667 36.9662H33.9387V48C41.8613 47.0391 48 40.269 48 32.0589C48 23.1904 40.836 16 32 16C23.164 16 16 23.1904 16 32.0589C16 39.5905 21.1653 45.9097 28.1347 47.6454Z" fill="var(--fill-0, #0866FF)"/>
</g>
</svg>
