<svg preserveAspectRatio="none" width="100%" height="100%" overflow="visible" style="display: block;" viewBox="0 0 72.5171 63.4807" fill="none" xmlns="http://www.w3.org/2000/svg">
<g id="_&#227;&#131;&#172;&#227;&#130;&#164;&#227;&#131;&#164;&#227;&#131;&#188;_1-2">
<path id="Vector" d="M36.1597 56.6922C35.1555 56.3581 34.1513 56.0391 33.1167 55.7506V2.521C33.1167 1.12382 31.9755 0 30.591 0H30.3475C28.9478 0 27.8218 1.13901 27.8218 2.521V54.5357C25.7374 54.1712 23.5921 53.9282 21.4163 53.8067V2.521C21.4163 1.12382 20.2752 0 18.8906 0H18.6472C17.2626 0 16.1215 1.13901 16.1215 2.521V53.7611C13.9458 53.8674 11.8157 54.0952 9.71601 54.4445V2.521C9.71601 1.12382 8.57488 0 7.19032 0H6.94688C5.56231 0 4.42119 1.13901 4.42119 2.521V55.6139C3.2192 55.9328 2.03243 56.2973 0.86088 56.6922C0.19142 56.92 -0.158525 57.6338 0.0696999 58.2868C0.25228 58.8031 0.73916 59.1372 1.25647 59.1372C1.3934 59.1372 1.53034 59.1221 1.66727 59.0765C2.56496 58.7728 3.47786 58.4842 4.40597 58.226V60.9597C4.40597 62.3568 5.5471 63.4807 6.93166 63.4807H7.1751C8.55967 63.4807 9.70079 62.3416 9.70079 60.9597V56.9959C11.8005 56.6314 13.9306 56.3884 16.1063 56.2821V60.9597C16.1063 62.3568 17.2474 63.4807 18.632 63.4807H18.8754C20.2752 63.4807 21.4011 62.3416 21.4011 60.9597V56.3125C23.5769 56.434 25.707 56.6922 27.8066 57.087V60.9445C27.8066 62.3416 28.9478 63.4655 30.3323 63.4655H30.5758C31.9755 63.4655 33.1015 62.3265 33.1015 60.9445V58.3475C33.847 58.5753 34.5925 58.8031 35.3228 59.0461C35.9771 59.2739 36.6922 58.9246 36.9204 58.2564C37.1486 57.6034 36.7987 56.8896 36.1292 56.6618L36.1597 56.6922ZM71.6867 33.5324C70.6064 33.1527 69.4957 32.8338 68.385 32.53V2.521C68.385 1.12382 67.2439 0 65.8593 0H65.6159C64.2313 0 63.0902 1.13901 63.0902 2.521V31.3303C60.1537 30.8291 57.1259 30.5558 54.0373 30.5558C50.9486 30.5558 47.9209 30.8291 44.9844 31.3303V2.521C44.9844 1.12382 43.8432 0 42.4587 0H42.2152C40.8155 0 39.6743 1.13901 39.6743 2.521V32.5149C38.5636 32.8186 37.4529 33.1527 36.3727 33.5172C35.7184 33.745 35.3685 34.4588 35.5815 35.1118C35.8097 35.7648 36.5248 36.1141 37.1791 35.9015C38.0007 35.6281 38.8223 35.37 39.6591 35.127V60.9597C39.6591 62.3568 40.8002 63.4807 42.2 63.4807H42.4435C43.8432 63.4807 44.9691 62.3416 44.9691 60.9597V33.8817C47.9056 33.3501 50.9334 33.0616 54.0221 33.0616C57.1107 33.0616 60.1385 33.3501 63.075 33.8817V60.9445C63.075 62.3416 64.2161 63.4655 65.6007 63.4655H65.8441C67.2439 63.4655 68.3698 62.3265 68.3698 60.9445V35.127C69.2066 35.37 70.0282 35.6281 70.8499 35.9015C70.9868 35.9471 71.1237 35.9622 71.2607 35.9622C71.778 35.9622 72.2801 35.6281 72.4474 35.1118C72.6757 34.4588 72.3257 33.745 71.6563 33.5172L71.6867 33.5324Z" fill="var(--fill-0, #D0121B)"/>
</g>
</svg>
