<svg width="32" height="32" viewBox="0 0 32 32" fill="none" xmlns="http://www.w3.org/2000/svg">
<g clip-path="url(#clip0_1289_1584)">
<path d="M16.5 29C23.4036 29 29 23.4036 29 16.5C29 9.59644 23.4036 4 16.5 4C9.59644 4 4 9.59644 4 16.5C4 23.4036 9.59644 29 16.5 29Z" fill="#1A2136"/>
<path fill-rule="evenodd" clip-rule="evenodd" d="M19.9437 12.6854C20.2972 13.039 20.2972 13.6577 19.9437 14.0113L17.955 16L19.9437 17.9887C20.2972 18.3423 20.2972 18.961 19.9437 19.3146C19.5901 19.6681 18.9714 19.6681 18.6179 19.3146L16.6291 17.3258L14.6404 19.3146C14.2868 19.6681 13.6681 19.6681 13.3146 19.3146C12.961 18.961 12.961 18.3423 13.3146 17.9887L15.3033 16L13.3146 14.0113C12.961 13.6577 12.961 13.039 13.3146 12.6854C13.6681 12.3319 14.2868 12.3319 14.6404 12.6854L16.6291 14.6742L18.6179 12.6854C18.9714 12.3319 19.5901 12.3319 19.9437 12.6854Z" fill="white"/>
</g>
<defs>
<clipPath id="clip0_1289_1584">
<rect width="32" height="32" fill="white"/>
</clipPath>
</defs>
</svg>
